<?xml version="1.0" encoding="UTF-8"?>
<svg xmlns="http://www.w3.org/2000/svg" width="160" height="220" viewBox="0 0 160 220">
  <defs>
    <linearGradient id="plastic" x1="0" x2="0" y1="0" y2="1">
      <stop offset="0%" stop-color="#f9f7f4"/>
      <stop offset="55%" stop-color="#efeae2"/>
      <stop offset="100%" stop-color="#e6dfd6"/>
    </linearGradient>
    <linearGradient id="bevelLight" x1="0" x2="0" y1="0" y2="1">
      <stop offset="0%" stop-color="#ffffff" stop-opacity="0.9"/>
      <stop offset="100%" stop-color="#000000" stop-opacity="0.12"/>
    </linearGradient>
    <filter id="dropShadow" x="-20%" y="-20%" width="140%" height="140%">
      <feGaussianBlur in="SourceAlpha" stdDeviation="2" result="blur"/>
      <feOffset in="blur" dx="0" dy="2" result="offsetBlur"/>
      <feColorMatrix in="offsetBlur" type="matrix"
        values="0 0 0 0 0
                0 0 0 0 0
                0 0 0 0 0
                0 0 0 0.35 0" result="shadow"/>
      <feBlend in="SourceGraphic" in2="shadow" mode="normal"/>
    </filter>
    <style>
      .num { font-family: 'Inter', 'DIN', 'Helvetica Neue', Arial, sans-serif; font-weight: 800; font-size: 96px; dominant-baseline: middle; text-anchor: middle; }
      .pip { opacity: 0.9; }
      .red { fill: #d63031; }
      .blue { fill: #0984e3; }
      .black { fill: #2d3436; }
      .yellow { fill: #f2c200; }
    </style>
  </defs>

  <!-- Tile base -->
  <g filter="url(#dropShadow)">
    <rect x="6" y="6" rx="16" ry="16" width="148" height="208" fill="url(#plastic)"/>
    <!-- inner bevel -->
    <rect x="6" y="6" rx="16" ry="16" width="148" height="208" fill="none" stroke="url(#bevelLight)" stroke-width="3"/>
  </g>

  <!-- Top highlight gloss -->
  <path d="M14,18 h132 a14,14 0 0 1 14,14 v12 H0 v-8 a18,18 0 0 1 14,-18 z" fill="#ffffff" opacity="0.18"/>

  <!-- Number (edit class and text) -->
  <text id="num" x="80" y="92" class="num red">11</text>

  <!-- Two small pips below number -->
  <circle cx="64" cy="152" r="6" class="pip red"/>
  <circle cx="96" cy="152" r="6" class="pip red"/>

  <!-- Bottom notch detail -->
  <rect x="52" y="178" width="56" height="6" rx="3" ry="3" fill="#d1c8bd" opacity="0.7"/>
</svg>
