<?xml version="1.0" encoding="UTF-8"?>
<svg xmlns="http://www.w3.org/2000/svg" width="1024" height="300" viewBox="0 0 1024 300">
  <defs>
    <linearGradient id="wood" x1="0" y1="0" x2="0" y2="1">
      <stop offset="0" stop-color="#ad7a4a"/>
      <stop offset="1" stop-color="#8b5a2b"/>
    </linearGradient>
    <linearGradient id="lip" x1="0" y1="0" x2="0" y2="1">
      <stop offset="0" stop-color="#deb887"/>
      <stop offset="1" stop-color="#a97449"/>
    </linearGradient>
    <filter id="shadow" x="-20%" y="-20%" width="140%" height="140%">
      <feGaussianBlur in="SourceAlpha" stdDeviation="3" result="blur"/>
      <feOffset in="blur" dx="0" dy="3" result="offsetBlur"/>
      <feColorMatrix in="offsetBlur" type="matrix"
        values="0 0 0 0 0
                0 0 0 0 0
                0 0 0 0 0
                0 0 0 0.35 0" result="shadow"/>
      <feBlend in="SourceGraphic" in2="shadow" mode="normal"/>
    </filter>
    <pattern id="grain" patternUnits="userSpaceOnUse" width="40" height="200">
      <rect width="40" height="200" fill="url(#wood)"/>
      <path d="M5,10 q10,10 0,20 M20,30 q15,15 0,30 M35,20 q-10,10 0,20 M10,70 q12,12 0,24"
            stroke="#000" stroke-opacity="0.05" fill="none" stroke-width="2"/>
    </pattern>
  </defs>

  <!-- Base -->
  <g filter="url(#shadow)">
    <rect x="12" y="40" rx="18" ry="18" width="1000" height="220" fill="url(#grain)"/>
  </g>

  <!-- Top lip -->
  <rect x="12" y="28" rx="12" ry="12" width="1000" height="28" fill="url(#lip)"/>
  <rect x="28" y="96" width="968" height="12" rx="6" fill="#000" opacity="0.18"/>
  <rect x="28" y="146" width="968" height="12" rx="6" fill="#000" opacity="0.12"/>

  <!-- Slots (grooves) to suggest three rows -->
  <rect x="32" y="108" width="960" height="8" rx="4" fill="#d7b08a" opacity="0.6"/>
  <rect x="32" y="158" width="960" height="8" rx="4" fill="#d7b08a" opacity="0.6"/>

  <!-- Subtle front highlight -->
  <rect x="12" y="220" width="1000" height="8" fill="#fff" opacity="0.08"/>
</svg>
